<svg enable-background="new 0 0 973 221" viewBox="0 0 973 221" xmlns="http://www.w3.org/2000/svg"><path d="m387.9 181.6s-37.2-27.1-71.6-52.1c-.1 0 0-.1 0-.1h18c33.8 0 61.2-27.8 61.2-62s-27.5-62-61.2-62h-159.5l53 38.4h106.5c12.6 0 22.8 10.6 22.8 23.6s-10.2 23.6-22.8 23.6h-135.8l46 33.6c.4.4.9.7 1.3 1.1l22.5 16.4 96.9 70.5c8.6 6.2 20.6 4.3 26.8-4.2 2.5-3.4 3.7-7.4 3.7-11.3.1-5.9-2.7-11.8-7.8-15.5z" fill="#005e85"/><path d="m155.3 91h-89.8c-12.6 0-22.8-10.6-22.8-23.6s10.3-23.6 22.8-23.6h140.5l-53-38.4h-87.5c-33.8 0-61.2 27.8-61.2 62s27.5 62 61.2 62h89.8c12.6 0 22.9 10.6 22.9 23.6s-10.3 23.6-22.9 23.6h-132.5c-11.5 0-20.7 10.2-19 22 1.4 9.6 10 16.4 19.6 16.4h131.8c33.8 0 61.2-27.8 61.2-62 .1-34.2-27.4-62-61.1-62z" fill="#005e85"/><g fill="#231f20"><path d="m441.3 42.9c4.2 3.1 11 5.5 20.8 7.4 8.4 1.5 12.1 3.1 13.7 4.1 2 1.3 3 3.6 3 6.9 0 5.5-1.6 12.8-15.6 12.8-5.6 0-13.8-.6-24.6-1.9l-2.1-.3-1.6 11.2 6.5.8c8.9 1.2 16.4 1.9 22.3 1.9 23.7 0 28.7-13.7 28.7-25.2 0-6.9-2.1-11.9-6.1-15.1-3.8-2.9-10-5.2-18.8-7-10.1-2-14.4-3.7-16.1-4.8-2.1-1.3-3.1-3.7-3.1-7.5 0-4.3 1.6-10 15.8-10 4.5 0 12.4.6 23.4 1.8l2.1.2 1.4-11.2-6.2-.8c-8.2-1.1-15.4-1.6-21.3-1.6-23.9 0-29 12.1-29 22.3 0 7.3 2.3 12.8 6.8 16z"/><path d="m517 83.4c4.3 1.7 9.9 2.6 16.7 2.6 6.7 0 14.3-.8 22.6-2.3l1.9-.3-.6-11.5-2.4.4c-14.8 2.5-26.3 2.5-31.7.3-2.5-1-4.3-2.6-5.6-5-1.4-2.5-2.3-5.4-2.8-8.6-.5-3.3-.8-7.8-.8-13.4 0-10.9 1.3-18.7 4-23 2.4-4 7.7-6 15.6-6 6.2 0 13.3.6 21.3 1.9l2.4.4.6-11.3-1.9-.3c-17.6-3.2-31-3.2-39.4.1-4.4 1.8-7.9 4.6-10.3 8.4-2.3 3.7-4 7.9-4.9 12.7-.9 4.6-1.3 10.4-1.3 17.1s.4 12.5 1.3 17c.9 4.7 2.5 8.9 4.9 12.5 2.5 3.7 6 6.5 10.4 8.3z"/><path d="m620.9 84.9h13.5v-79.1h-13.5v33.5h-37.9v-33.5h-13.6v79.1h13.6v-33.8h37.9z"/><path d="m718.2 24.2v60.7h13.6v-79.1h-20.4l-22 59.1-22-59.1h-20.4v79.1h13.6v-60.7l22.1 58h13.3z"/><path d="m744.4 5.8h13.6v79.1h-13.6z"/><path d="m802.4 5.8h-31.8v79.1h31.8c6.2 0 11.6-1.1 16.1-3.1 11.2-5.3 16.9-17.9 16.9-37.5 0-9.3-1.4-16.9-4-22.7-4.9-10.5-14.6-15.8-29-15.8zm19.1 38.4c0 19.5-6.2 29-19.1 29h-18.2v-55.8h18.2c3.8 0 7 .6 9.6 1.9 6.3 3.2 9.5 11.6 9.5 24.9z"/><path d="m838.4 17.6h25.6v67.3h13.5v-67.3h25.3v-11.8h-64.4z"/><path d="m961.9 45.6c-3.8-2.9-10-5.2-18.8-7-10.1-2-14.4-3.7-16.1-4.8-2.1-1.3-3.1-3.7-3.1-7.5 0-4.3 1.6-10 15.8-10 4.5 0 12.4.6 23.4 1.8l2.1.2 1.4-11.3-6.2-.8c-8.2-1.1-15.4-1.6-21.3-1.6-23.9 0-28.9 12.1-28.9 22.3 0 7.4 2.3 12.8 6.8 16.1 4.2 3.1 11 5.5 20.8 7.4 8.4 1.5 12.1 3.1 13.7 4.1 2 1.3 3 3.6 3 6.9 0 5.5-1.6 12.8-15.6 12.8-5.6 0-13.8-.6-24.6-1.9l-2.1-.3-1.6 11.2 6.4.8c8.9 1.2 16.4 1.9 22.3 1.9 23.7 0 28.7-13.7 28.7-25.2 0-6.9-2.1-12-6.1-15.1z"/><path d="m496.1 123.9c0-8.4-2.5-14.8-7.5-18.9-4.8-4-12-6-21.3-6h-32.9v79.1h13.6v-28.6h20l15 28.6h15.1l-16.5-31.3c9.7-3.6 14.5-11.3 14.5-22.9zm-13.8.4c0 9.2-4.7 13.6-14.8 13.6h-19.4v-27.1h19.3c10.2-.1 14.9 4.2 14.9 13.5z"/><path d="m531.4 99-24.1 79.1h13.7l6-19.2h32.3l6 19.2h13.7l-24.2-79.1zm13.2 11.5 11.3 36.6h-25.6l11.3-36.6z"/><path d="m621.9 99h-31.8v79.1h31.8c6.2 0 11.6-1.1 16.1-3.1 11.2-5.3 16.9-17.9 16.9-37.5 0-9.3-1.4-16.9-4-22.7-4.9-10.5-14.6-15.8-29-15.8zm19.1 38.5c0 19.5-6.2 29-19.1 29h-18.2v-55.7h18.2c3.8 0 7 .6 9.6 1.9 6.3 3.1 9.5 11.4 9.5 24.8z"/><path d="m666 99h13.6v79.1h-13.6z"/><path d="m725.6 97.9c-12.9 0-22.1 3.5-27.3 10.4-5.1 6.7-7.6 17-7.6 30.6s2.5 23.8 7.5 30.2c5.1 6.7 14.4 10 27.5 10s22.3-3.3 27.5-9.8c5-6.3 7.6-16.5 7.6-30.3s-2.6-24.1-7.7-30.8c-5.3-6.8-14.6-10.3-27.5-10.3zm-16.6 18.2c2.8-4.3 8.4-6.5 16.5-6.5 8.2 0 13.8 2.2 16.6 6.6 3 4.7 4.6 12.4 4.6 22.9s-1.5 18-4.4 22.3c-2.7 4-8.3 6.1-16.7 6.1s-14-2.1-16.7-6.2c-2.9-4.4-4.4-11.9-4.4-22.4s1.5-18.1 4.5-22.8z"/></g><g fill="#005e85"><path d="m443.6 192.1h-9.1v22.8h9.1c1.8 0 3.3-.3 4.6-.9 3.2-1.5 4.8-5.1 4.8-10.8 0-2.7-.4-4.9-1.2-6.6-1.3-3-4-4.5-8.2-4.5zm5.8 11c0 5.8-1.9 8.6-5.7 8.6h-5.5v-16.6h5.5c1.1 0 2.1.2 2.9.6 1.8 1 2.8 3.5 2.8 7.4z"/><path d="m457 192.1h3.6v22.8h-3.6z"/><path d="m479.6 211.7-9.2-19.6h-5.9v22.7h3.7v-19.4l9.3 19.4h5.7v-22.7h-3.6z"/><path d="m502.5 192.1-6.9 22.8h3.7l1.8-5.6h9.7l1.8 5.6h3.6l-6.9-22.8zm3.9 3 3.4 11h-7.9l3.4-11z"/><path d="m524.6 211.8h-1.3l-5.6-19.7h-3.8l6.7 22.7h6.7l6.6-22.7h-3.8z"/><path d="m535.1 204.1h11.6v3.2h-11.6z"/><path d="m566.5 193.9c-1.3-1.2-3.4-1.9-6.2-1.9h-9.3v22.8h3.6v-7.3h5.7c5.5 0 8.2-2.7 8.2-7.9 0-2.5-.6-4.4-2-5.7zm-11.9 1.3h5.7c1.6 0 2.8.4 3.5 1 .7.7 1.1 1.8 1.1 3.4 0 3.3-1.4 4.8-4.5 4.8h-5.7v-9.2z"/><path d="m575.5 192.1-6.9 22.8h3.7l1.8-5.6h9.7l1.8 5.6h3.6l-6.9-22.8zm3.8 3 3.4 11h-7.9l3.4-11z"/><path d="m609.4 199.2c0-2.4-.7-4.2-2.1-5.4-1.4-1.1-3.4-1.7-6.1-1.7h-9.4v22.8h3.6v-8.4h6.1l4.4 8.4h4l-4.8-9.1c2.9-1 4.3-3.3 4.3-6.6zm-3.7.1c0 2.8-1.4 4.1-4.5 4.1h-5.8v-8.2h5.8c3.1 0 4.5 1.3 4.5 4.1z"/><path d="m611.1 195.2h7.4v19.6h3.6v-19.6h7.4v-3.1h-18.4z"/><path d="m647.3 211.7-9.2-19.6h-5.8v22.7h3.6v-19.4l9.3 19.4h5.7v-22.7h-3.6z"/><path d="m654.9 214.8h15.7v-3h-12.1v-7h10v-3h-10v-6.6h12.1v-3.1h-15.7z"/><path d="m691.6 199.2c0-2.4-.7-4.2-2.1-5.4-1.4-1.1-3.4-1.7-6.1-1.7h-9.4v22.8h3.6v-8.4h6.1l4.4 8.4h4l-4.8-9.1c2.9-1 4.3-3.3 4.3-6.6zm-3.7.1c0 2.8-1.4 4.1-4.5 4.1h-5.8v-8.2h5.8c3 0 4.5 1.3 4.5 4.1z"/><path d="m714.7 201.7c-2.4-.5-4-1-4.8-1.4-.7-.4-1-1.2-1-2.3 0-.8 0-3.1 4.8-3.1 1.3 0 3.6.2 6.8.5l.5.1.4-3-1.7-.2c-2.4-.3-4.5-.5-6.2-.5-5.5 0-8.3 2.1-8.3 6.3 0 2.1.6 3.6 1.9 4.6 1.2.9 3.2 1.6 6 2.1 2 .3 3.4.8 4.1 1.2.6.4.9 1.1.9 2.1 0 2.7-1.5 3.9-4.7 3.9-1.6 0-4.1-.2-7.2-.6l-.5-.1-.4 3 1.7.2c2.6.4 4.8.5 6.5.5 5.5 0 8.2-2.4 8.2-7.2 0-2-.6-3.4-1.7-4.3-1-.7-2.7-1.3-5.3-1.8z"/><path d="m725.2 192.1h3.6v22.8h-3.6z"/><path d="m742 192.1h-9.1v22.8h9.1c1.8 0 3.3-.3 4.6-.9 3.2-1.5 4.8-5.1 4.8-10.8 0-2.7-.4-4.9-1.2-6.6-1.3-3-4.1-4.5-8.2-4.5zm5.7 11.1c0 5.8-1.9 8.6-5.7 8.6h-5.5v-16.6h5.5c1.1 0 2.1.2 2.9.6 1.8.9 2.8 3.4 2.8 7.4z"/><path d="m755.3 214.9h15.7v-3.1h-12.1v-7h10v-3h-10v-6.6h12.1v-3.1h-15.7z"/><path d="m789.3 211.7-9.2-19.6h-5.8v22.8h3.6v-19.5l9.3 19.5h5.8v-22.8h-3.7z"/><path d="m806.2 197.8 1.8 2.7 5.6-3.4v17.8h3.7v-21.8h-3.2z"/><path d="m829.7 192.8c-2.6 0-4.6.7-6.2 2s-2.3 3.1-2.3 5.4c0 4.5 2.7 6.8 8 6.8 1.6 0 3.4-.3 5.5-1-.2 4.1-2.1 6.1-5.9 6.1-1.9 0-4-.1-6-.4l-.5-.1-.4 2.9 1.4.2c1.9.3 3.7.4 5.5.4 3.1 0 5.6-.9 7.2-2.6s2.5-4.5 2.5-8.2-.7-6.6-2.2-8.6c-1.3-1.9-3.6-2.9-6.6-2.9zm5.2 10.1-.6.2c-1.8.5-3.4.8-4.8.8-3.1 0-4.5-1.2-4.5-3.7 0-1.3.4-2.4 1.2-3.1.8-.8 2-1.1 3.5-1.1 3.3-.1 5 2.2 5.2 6.9z"/><path d="m853.4 203.3c.2-.1.5-.3.8-.5s.6-.5.8-.8c.2-.2.4-.6.7-1 .4-.5.5-1.3.5-2.4 0-2-.6-3.6-1.9-4.5-1.2-.9-3.1-1.4-5.7-1.4-2.5 0-5 .3-7.2.9l-.4.1.4 2.8 1.4-.2c1.8-.3 3.6-.5 5.5-.5 1.6 0 2.7.2 3.4.7.6.4.9 1.1.9 2.1s-.4 1.8-1.2 2.4-1.7 1-2.5 1h-5.1v3h5.1c3.9.1 4.3 2 4.3 3.4 0 1.5-.5 3.5-4.5 3.6-2.2 0-4.5-.2-7-.7l-.5-.1-.4 2.9 1.5.3c2.3.4 4.5.6 6.6.6 2.7 0 4.7-.6 6-1.7s2-2.8 2-5.1c0-1.7-.4-2.9-1.1-3.7-.7-.3-1.4-.8-2.4-1.2z"/><path d="m858.8 193.1v3.2h11.6v.2l-8.9 17.8 3.5 1 9-18.3.1-3.9z"/></g><g fill="#231f20"><path d="m822.1 111.2c-1.1-.8-2.9-1.5-5.4-2-2.4-.5-4-1-4.8-1.4-.7-.4-1-1.2-1-2.3 0-.8 0-3.1 4.8-3.1 1.3 0 3.6.2 6.8.5l.5.1.4-3-1.7-.2c-2.4-.3-4.5-.5-6.2-.5-5.5 0-8.3 2.1-8.3 6.3 0 2.1.6 3.6 1.9 4.6 1.2.9 3.2 1.6 6 2.1 2 .3 3.4.8 4.1 1.2.6.4.9 1.1.9 2.1 0 2.7-1.5 3.9-4.7 3.9-1.6 0-4.1-.2-7.2-.6l-.5-.1-.4 3 1.7.2c2.6.4 4.8.5 6.5.5 5.5 0 8.2-2.4 8.2-7.2.1-1.8-.5-3.2-1.6-4.1z"/><path d="m793.2 122.3h3.7l8.6-22.7h-3.8z"/><path d="m783.8 99.6h-6.6l-6.9 22.8h3.7l1.8-5.6h9.7l1.8 5.6h3.6zm-7.3 14 3.4-11h1.1l3.4 11z"/></g></svg>